<svg height="1598" width="720" xmlns="http://www.w3.org/2000/svg">
<rect height="1598" fill="#555" width="720"></rect>
<text fill="#7f7" font-family="Courier New" font-size="12" xml:space="preserve">
<tspan x="10" y="26">25 megabytes installed</tspan>
<tspan x="10" y="42"></tspan>
<tspan x="10" y="58">node_modules</tspan>
<tspan x="10" y="74">└─┬ jhipster-uml@2.0.3 </tspan>
<tspan x="10" y="90">  ├─┬ chalk@1.1.3 </tspan>
<tspan x="10" y="106">  │ ├── ansi-styles@2.2.1 </tspan>
<tspan x="10" y="122">  │ ├── escape-string-regexp@1.0.5 </tspan>
<tspan x="10" y="138">  │ ├─┬ has-ansi@2.0.0 </tspan>
<tspan x="10" y="154">  │ │ └── ansi-regex@2.1.1 </tspan>
<tspan x="10" y="170">  │ ├── strip-ansi@3.0.1 </tspan>
<tspan x="10" y="186">  │ └── supports-color@2.0.0 </tspan>
<tspan x="10" y="202">  ├─┬ deasync@0.1.9 </tspan>
<tspan x="10" y="218">  │ ├── bindings@1.2.1 </tspan>
<tspan x="10" y="234">  │ └── nan@2.6.2 </tspan>
<tspan x="10" y="250">  ├─┬ inquirer@2.0.0 </tspan>
<tspan x="10" y="266">  │ ├── ansi-escapes@1.4.0 </tspan>
<tspan x="10" y="282">  │ ├─┬ cli-cursor@1.0.2 </tspan>
<tspan x="10" y="298">  │ │ └─┬ restore-cursor@1.0.1 </tspan>
<tspan x="10" y="314">  │ │   ├── exit-hook@1.1.1 </tspan>
<tspan x="10" y="330">  │ │   └── onetime@1.1.0 </tspan>
<tspan x="10" y="346">  │ ├── cli-width@2.1.0 </tspan>
<tspan x="10" y="362">  │ ├─┬ external-editor@1.1.1 </tspan>
<tspan x="10" y="378">  │ │ ├── extend@3.0.0 </tspan>
<tspan x="10" y="394">  │ │ ├─┬ spawn-sync@1.0.15 </tspan>
<tspan x="10" y="410">  │ │ │ ├─┬ concat-stream@1.6.0 </tspan>
<tspan x="10" y="426">  │ │ │ │ ├── inherits@2.0.3 </tspan>
<tspan x="10" y="442">  │ │ │ │ ├─┬ readable-stream@2.2.9 </tspan>
<tspan x="10" y="458">  │ │ │ │ │ ├── buffer-shims@1.0.0 </tspan>
<tspan x="10" y="474">  │ │ │ │ │ ├── core-util-is@1.0.2 </tspan>
<tspan x="10" y="490">  │ │ │ │ │ ├── isarray@1.0.0 </tspan>
<tspan x="10" y="506">  │ │ │ │ │ ├── process-nextick-args@1.0.7 </tspan>
<tspan x="10" y="522">  │ │ │ │ │ ├── string_decoder@1.0.0 </tspan>
<tspan x="10" y="538">  │ │ │ │ │ └── util-deprecate@1.0.2 </tspan>
<tspan x="10" y="554">  │ │ │ │ └── typedarray@0.0.6 </tspan>
<tspan x="10" y="570">  │ │ │ └── os-shim@0.1.3 </tspan>
<tspan x="10" y="586">  │ │ └─┬ tmp@0.0.29 </tspan>
<tspan x="10" y="602">  │ │   └── os-tmpdir@1.0.2 </tspan>
<tspan x="10" y="618">  │ ├── figures@2.0.0 </tspan>
<tspan x="10" y="634">  │ ├── mute-stream@0.0.6 </tspan>
<tspan x="10" y="650">  │ ├─┬ pinkie-promise@2.0.1 </tspan>
<tspan x="10" y="666">  │ │ └── pinkie@2.0.4 </tspan>
<tspan x="10" y="682">  │ ├─┬ run-async@2.3.0 </tspan>
<tspan x="10" y="698">  │ │ └── is-promise@2.1.0 </tspan>
<tspan x="10" y="714">  │ ├── rx@4.1.0 </tspan>
<tspan x="10" y="730">  │ ├─┬ string-width@2.0.0 </tspan>
<tspan x="10" y="746">  │ │ └── is-fullwidth-code-point@2.0.0 </tspan>
<tspan x="10" y="762">  │ └── through@2.3.8 </tspan>
<tspan x="10" y="778">  ├─┬ jhipster-core@1.2.6 </tspan>
<tspan x="10" y="794">  │ └── lodash@4.17.2 </tspan>
<tspan x="10" y="810">  ├── lodash@4.17.4 </tspan>
<tspan x="10" y="826">  ├─┬ xml2js@0.4.17 </tspan>
<tspan x="10" y="842">  │ ├── sax@1.2.2 </tspan>
<tspan x="10" y="858">  │ └── xmlbuilder@4.2.1 </tspan>
<tspan x="10" y="874">  └─┬ yargs@6.6.0 </tspan>
<tspan x="10" y="890">    ├── camelcase@3.0.0 </tspan>
<tspan x="10" y="906">    ├─┬ cliui@3.2.0 </tspan>
<tspan x="10" y="922">    │ ├─┬ string-width@1.0.2 </tspan>
<tspan x="10" y="938">    │ │ └── is-fullwidth-code-point@1.0.0 </tspan>
<tspan x="10" y="954">    │ └─┬ wrap-ansi@2.1.0 </tspan>
<tspan x="10" y="970">    │   └─┬ string-width@1.0.2 </tspan>
<tspan x="10" y="986">    │     └── is-fullwidth-code-point@1.0.0 </tspan>
<tspan x="10" y="1002">    ├── decamelize@1.2.0 </tspan>
<tspan x="10" y="1018">    ├── get-caller-file@1.0.2 </tspan>
<tspan x="10" y="1034">    ├─┬ os-locale@1.4.0 </tspan>
<tspan x="10" y="1050">    │ └─┬ lcid@1.0.0 </tspan>
<tspan x="10" y="1066">    │   └── invert-kv@1.0.0 </tspan>
<tspan x="10" y="1082">    ├─┬ read-pkg-up@1.0.1 </tspan>
<tspan x="10" y="1098">    │ ├─┬ find-up@1.1.2 </tspan>
<tspan x="10" y="1114">    │ │ └── path-exists@2.1.0 </tspan>
<tspan x="10" y="1130">    │ └─┬ read-pkg@1.1.0 </tspan>
<tspan x="10" y="1146">    │   ├─┬ load-json-file@1.1.0 </tspan>
<tspan x="10" y="1162">    │   │ ├── graceful-fs@4.1.11 </tspan>
<tspan x="10" y="1178">    │   │ ├─┬ parse-json@2.2.0 </tspan>
<tspan x="10" y="1194">    │   │ │ └─┬ error-ex@1.3.1 </tspan>
<tspan x="10" y="1210">    │   │ │   └── is-arrayish@0.2.1 </tspan>
<tspan x="10" y="1226">    │   │ ├── pify@2.3.0 </tspan>
<tspan x="10" y="1242">    │   │ └─┬ strip-bom@2.0.0 </tspan>
<tspan x="10" y="1258">    │   │   └── is-utf8@0.2.1 </tspan>
<tspan x="10" y="1274">    │   ├─┬ normalize-package-data@2.3.8 </tspan>
<tspan x="10" y="1290">    │   │ ├── hosted-git-info@2.4.2 </tspan>
<tspan x="10" y="1306">    │   │ ├─┬ is-builtin-module@1.0.0 </tspan>
<tspan x="10" y="1322">    │   │ │ └── builtin-modules@1.1.1 </tspan>
<tspan x="10" y="1338">    │   │ ├── semver@5.3.0 </tspan>
<tspan x="10" y="1354">    │   │ └─┬ validate-npm-package-license@3.0.1 </tspan>
<tspan x="10" y="1370">    │   │   ├─┬ spdx-correct@1.0.2 </tspan>
<tspan x="10" y="1386">    │   │   │ └── spdx-license-ids@1.2.2 </tspan>
<tspan x="10" y="1402">    │   │   └── spdx-expression-parse@1.0.4 </tspan>
<tspan x="10" y="1418">    │   └── path-type@1.1.0 </tspan>
<tspan x="10" y="1434">    ├── require-directory@2.1.1 </tspan>
<tspan x="10" y="1450">    ├── require-main-filename@1.0.1 </tspan>
<tspan x="10" y="1466">    ├── set-blocking@2.0.0 </tspan>
<tspan x="10" y="1482">    ├─┬ string-width@1.0.2 </tspan>
<tspan x="10" y="1498">    │ ├── code-point-at@1.1.0 </tspan>
<tspan x="10" y="1514">    │ └─┬ is-fullwidth-code-point@1.0.0 </tspan>
<tspan x="10" y="1530">    │   └── number-is-nan@1.0.1 </tspan>
<tspan x="10" y="1546">    ├── which-module@1.0.0 </tspan>
<tspan x="10" y="1562">    ├── y18n@3.2.1 </tspan>
<tspan x="10" y="1578">    └── yargs-parser@4.2.1</tspan>
</text>
</svg>
